<svg width="29" height="33" viewBox="0 0 29 33" fill="none" xmlns="http://www.w3.org/2000/svg">
<rect x="3.17822" y="0.689941" width="22.9769" height="30.9189" rx="5" fill="#859C60"/>
<path d="M19.1854 10.2654C20.8959 11.2621 22.2288 12.7965 22.9767 14.6295C23.7245 16.4626 23.8453 18.4914 23.3203 20.4003C22.7952 22.3091 21.6538 23.9908 20.0737 25.1835C18.4936 26.3762 16.5634 27.013 14.5838 26.9947C12.6042 26.9765 10.6861 26.3042 9.12823 25.0826C7.57036 23.861 6.46011 22.1586 5.97033 20.2404C5.48055 18.3222 5.63872 16.2959 6.42022 14.477C7.20172 12.658 8.5627 11.1485 10.2913 10.1834" stroke="black" stroke-width="3"/>
<path d="M14.666 3.16064V14.5888" stroke="black" stroke-width="4"/>
</svg>
