<svg width="32" height="32" viewBox="0 0 32 32" fill="none" xmlns="http://www.w3.org/2000/svg">
<rect x="0.693359" y="0.345215" width="30.9189" height="30.9189" rx="5" fill="black"/>
<path d="M20.6717 9.92064C22.3822 10.9174 23.7151 12.4518 24.463 14.2848C25.2108 16.1178 25.3316 18.1467 24.8066 20.0555C24.2816 21.9644 23.1401 23.646 21.56 24.8387C19.9799 26.0314 18.0498 26.6682 16.0701 26.65C14.0905 26.6318 12.1724 25.9595 10.6146 24.7379C9.05669 23.5163 7.94644 21.8138 7.45666 19.8957C6.96687 17.9775 7.12505 15.9512 7.90655 14.1322C8.68805 12.3133 10.049 10.8038 11.7776 9.83869" stroke="#859C60" stroke-width="3"/>
<path d="M16.1523 2.81592V14.2441" stroke="#859C60" stroke-width="4"/>
</svg>
