<svg width="26" height="32" viewBox="0 0 26 32" fill="none" xmlns="http://www.w3.org/2000/svg">
<rect x="0.708496" y="0.689941" width="25.1057" height="30.9189" rx="5" fill="#859C60"/>
<path d="M2.93115 28.9802L24.5347 7.37671" stroke="black" stroke-width="2"/>
<path d="M12.4629 3.31836V14.7465" stroke="black" stroke-width="4"/>
<path fill-rule="evenodd" clip-rule="evenodd" d="M20.7187 11.7302C20.5414 11.5032 20.3548 11.2836 20.1594 11.072L18.0357 13.1957C18.2283 13.411 18.4084 13.6375 18.5749 13.874L20.7187 11.7302ZM9.03967 24.8234C10.0721 25.3554 11.2203 25.6425 12.3946 25.6533C14.0434 25.6685 15.6509 25.1381 16.967 24.1447C18.283 23.1514 19.2337 21.7508 19.671 20.1609C20.1082 18.5711 20.0076 16.8813 19.3848 15.3547C19.3013 15.15 19.209 14.9499 19.1085 14.7547L21.3039 12.5592C21.6373 13.0838 21.9252 13.6397 22.1625 14.2214C23.0353 16.3608 23.1763 18.7287 22.5635 20.9566C21.9507 23.1844 20.6185 25.1472 18.7743 26.5392C16.9301 27.9312 14.6774 28.6745 12.3669 28.6532C10.4027 28.6351 8.49042 28.0653 6.84421 27.0189L9.03967 24.8234ZM8.159 24.2899C8.05452 24.2163 7.95175 24.1399 7.85079 24.0608C7.72381 23.9612 7.6004 23.8578 7.48069 23.7507L5.35701 25.8744C5.56316 26.0648 5.77748 26.2473 5.9996 26.4215C6.00479 26.4256 6.00999 26.4296 6.0152 26.4337L8.159 24.2899ZM17.7376 9.12787C18.3513 9.4855 18.9233 9.90241 19.4467 10.3705L17.3208 12.4965C16.982 12.2069 16.6163 11.9467 16.2271 11.7199L17.7376 9.12787ZM5.22066 20.0278C5.50543 21.143 6.04202 22.1707 6.78147 23.0357L4.65552 25.1617C3.53947 23.9138 2.73253 22.4094 2.31392 20.77C1.74228 18.5312 1.92689 16.1663 2.839 14.0433C3.75112 11.9204 5.33955 10.1586 7.357 9.03223L8.81945 11.6516C7.37978 12.4554 6.24626 13.7127 5.59537 15.2276C4.94447 16.7426 4.81274 18.4302 5.22066 20.0278Z" fill="black"/>
</svg>
