<svg width="32" height="32" viewBox="0 0 32 32" fill="none" xmlns="http://www.w3.org/2000/svg">
<rect x="0.288574" y="0.345215" width="30.9189" height="30.9189" rx="5" fill="black"/>
<path d="M6.26025 28.6355L27.8638 7.03198" stroke="#859C60" stroke-width="2"/>
<path d="M15.792 2.97363V14.4018" stroke="#859C60" stroke-width="4"/>
<path fill-rule="evenodd" clip-rule="evenodd" d="M24.0478 11.3855C23.8705 11.1584 23.6839 10.9389 23.4885 10.7273L21.3648 12.851C21.5574 13.0663 21.7375 13.2928 21.904 13.5293L24.0478 11.3855ZM12.3688 24.4787C13.4012 25.0106 14.5494 25.2978 15.7237 25.3086C17.3725 25.3238 18.98 24.7934 20.2961 23.8C21.6121 22.8067 22.5628 21.406 23.0001 19.8162C23.4374 18.2264 23.3367 16.5366 22.7139 15.0099C22.6304 14.8053 22.5381 14.6051 22.4376 14.4099L24.633 12.2145C24.9664 12.739 25.2543 13.295 25.4916 13.8767C26.3644 16.0161 26.5054 18.384 25.8926 20.6119C25.2798 22.8397 23.9476 24.8024 22.1034 26.1945C20.2592 27.5865 18.0065 28.3297 15.696 28.3085C13.7318 28.2904 11.8195 27.7206 10.1733 26.6742L12.3688 24.4787ZM11.4881 23.9452C11.3836 23.8716 11.2809 23.7952 11.1799 23.716C11.0529 23.6165 10.9295 23.513 10.8098 23.406L8.68611 25.5297C8.89227 25.72 9.10658 25.9026 9.3287 26.0768C9.33389 26.0808 9.3391 26.0849 9.3443 26.089L11.4881 23.9452ZM21.0667 8.78315C21.6804 9.14077 22.2524 9.55768 22.7758 10.0258L20.6499 12.1517C20.3111 11.8622 19.9454 11.6019 19.5562 11.3752L21.0667 8.78315ZM8.54976 19.6831C8.83453 20.7983 9.37112 21.826 10.1106 22.691L7.98462 24.817C6.86857 23.5691 6.06163 22.0647 5.64302 20.4253C5.07138 18.1865 5.25599 15.8216 6.1681 13.6986C7.08022 11.5757 8.66865 9.81387 10.6861 8.6875L12.1485 11.3069C10.7089 12.1107 9.57536 13.3679 8.92447 14.8829C8.27358 16.3978 8.14184 18.0855 8.54976 19.6831Z" fill="#859C60"/>
</svg>
