<svg width="38" height="38" viewBox="0 0 38 38" fill="none" xmlns="http://www.w3.org/2000/svg">
<g clip-path="url(#clip0_746_30)">
<path d="M18.5791 0.89502C8.35785 0.89502 0.0791016 9.17377 0.0791016 19.395C0.0791016 27.5813 5.37473 34.4956 12.7285 36.9469C13.6535 37.1088 14.0004 36.5538 14.0004 36.0681C14.0004 35.6288 13.9772 34.1719 13.9772 32.6225C9.3291 33.4781 8.1266 31.4894 7.7566 30.4488C7.54848 29.9169 6.6466 28.275 5.86035 27.8356C5.21285 27.4888 4.28785 26.6331 5.83723 26.61C7.2941 26.5869 8.33473 27.9513 8.6816 28.5063C10.3466 31.3044 13.006 30.5181 14.0697 30.0325C14.2316 28.83 14.7172 28.0206 15.2491 27.5581C11.1329 27.0956 6.8316 25.5 6.8316 18.4238C6.8316 16.4119 7.54848 14.7469 8.72785 13.4519C8.54285 12.9894 7.89535 11.0931 8.91285 8.54939C8.91285 8.54939 10.4622 8.06377 14.0004 10.4456C15.4804 10.0294 17.0529 9.82127 18.6254 9.82127C20.1979 9.82127 21.7704 10.0294 23.2504 10.4456C26.7885 8.04064 28.3379 8.54939 28.3379 8.54939C29.3554 11.0931 28.7079 12.9894 28.5229 13.4519C29.7022 14.7469 30.4191 16.3888 30.4191 18.4238C30.4191 25.5231 26.0947 27.0956 21.9785 27.5581C22.6491 28.1363 23.2272 29.2463 23.2272 30.9806C23.2272 33.455 23.2041 35.4438 23.2041 36.0681C23.2041 36.5538 23.551 37.1319 24.476 36.9469C28.1488 35.7074 31.3403 33.3471 33.6012 30.1985C35.8621 27.0498 37.0785 23.2713 37.0791 19.395C37.0791 9.17377 28.8004 0.89502 18.5791 0.89502Z" fill="white"/>
</g>
<defs>
<clipPath id="clip0_746_30">
<rect width="37" height="37" fill="white" transform="translate(0.0791016 0.89502)"/>
</clipPath>
</defs>
</svg>
