<svg width="35" height="36" viewBox="0 0 35 36" fill="none" xmlns="http://www.w3.org/2000/svg">
<g clip-path="url(#clip0_746_28)">
<path d="M0 3.02885C0 1.64416 1.15062 0.521973 2.57031 0.521973H32.4297C33.8494 0.521973 35 1.64416 35 3.02885V33.0151C35 34.3998 33.8494 35.522 32.4297 35.522H2.57031C1.15062 35.522 0 34.3998 0 33.0151V3.02885ZM10.8128 29.8213V14.0167H5.56063V29.8213H10.8128ZM8.18781 11.8576C10.0188 11.8576 11.1584 10.6457 11.1584 9.1276C11.1256 7.57666 10.0209 6.3976 8.22281 6.3976C6.42469 6.3976 5.25 7.57885 5.25 9.1276C5.25 10.6457 6.38969 11.8576 8.15281 11.8576H8.18781V11.8576ZM18.9241 29.8213V20.9948C18.9241 20.5223 18.9591 20.0498 19.0991 19.7129C19.4775 18.7701 20.3416 17.7923 21.7941 17.7923C23.695 17.7923 24.4541 19.2404 24.4541 21.3667V29.8213H29.7062V20.7563C29.7062 15.9001 27.1163 13.6426 23.66 13.6426C20.8731 13.6426 19.6241 15.1738 18.9241 16.2523V16.307H18.8891C18.9007 16.2887 18.9123 16.2705 18.9241 16.2523V14.0167H13.6741C13.7397 15.4998 13.6741 29.8213 13.6741 29.8213H18.9241Z" fill="white"/>
</g>
<defs>
<clipPath id="clip0_746_28">
<rect width="35" height="35" fill="white" transform="translate(0 0.521973)"/>
</clipPath>
</defs>
</svg>
